<?xml version="1.0" encoding="UTF-8"?>
<svg version="1.1" xmlns="http://www.w3.org/2000/svg" width="2482" height="2481">
<path d="M0 0 C819.06 0 1638.12 0 2482 0 C2482 818.73 2482 1637.46 2482 2481 C1662.94 2481 843.88 2481 0 2481 C0 1662.27 0 843.54 0 0 Z " fill="#FEFEFE" transform="translate(0,0)"/>
<path d="M0 0 C2.08632062 0.30660465 4.17372904 0.6038921 6.26177979 0.8984375 C43.32691563 6.26515512 80.58445978 18.04522678 114.25933838 34.33203125 C114.95913818 34.66944336 115.65893799 35.00685547 116.37994385 35.35449219 C120.3833583 37.29697731 124.35632796 39.29290436 128.31158447 41.33154297 C130.26371833 42.33428107 132.22405725 43.31954832 134.18511963 44.3046875 C151.87805478 53.31067627 168.87509358 63.96703803 184.61529541 76.06884766 C186.26810558 77.33876744 187.93224532 78.59244976 189.59918213 79.84375 C197.39425412 85.72747494 204.86440586 91.95538489 212.25933838 98.33203125 C212.97605713 98.94691406 213.69277588 99.56179688 214.43121338 100.1953125 C223.10090194 107.70068339 231.51106303 115.49055081 239.69683838 123.51953125 C240.27578857 124.07713135 240.85473877 124.63473145 241.45123291 125.20922852 C246.22156377 129.94141338 250.51296981 134.87538576 251.95855713 141.5703125 C251.92607448 150.09159481 249.97354433 155.31389006 245.25933838 162.33203125 C244.64735596 163.2446875 244.64735596 163.2446875 244.02301025 164.17578125 C242.08906231 167.05840526 240.15197051 169.9388607 238.20758057 172.81445312 C194.72255102 237.65822817 167.85864709 316.13567551 166.98590088 394.5078125 C166.97467194 395.50844727 166.96344299 396.50908203 166.95187378 397.54003906 C166.91362317 401.61354489 166.8861393 405.68681418 166.878479 409.76049805 C166.86892532 412.8016735 166.83520033 415.84186129 166.79840088 418.8828125 C166.80344635 419.78711502 166.80849182 420.69141754 166.81369019 421.62312317 C166.69502152 429.37123162 164.78457116 436.12430312 159.94683838 442.26953125 C154.27207843 446.62457958 149.22216192 447.77789972 142.17389011 447.71120548 C141.38480459 447.7157562 140.59571906 447.72030691 139.78272185 447.72499552 C137.14036201 447.73660007 134.49851696 447.72689662 131.8561554 447.71730042 C129.94190507 447.72130775 128.02765713 447.72663423 126.11341375 447.73316616 C120.85429503 447.74732827 115.59533066 447.74288241 110.33620417 447.73545301 C104.66398547 447.73071759 98.99180252 447.74327248 93.31959534 447.7538147 C83.49066782 447.76979845 73.66178153 447.7750648 63.83284187 447.77328682 C49.61311609 447.7709045 35.39345626 447.78688565 21.17374771 447.80773937 C14.54727463 447.81736711 7.92080053 447.82617004 1.29432583 447.8346014 C0.29931574 447.83586778 0.29931574 447.83586778 -0.71579557 447.83715975 C-16.50101654 447.85700429 -32.28624172 447.86700025 -48.07147217 447.87573242 C-48.7620529 447.87611709 -49.45263363 447.87650175 -50.16414106 447.87689808 C-55.75933546 447.88001405 -61.35452988 447.88310519 -66.94972432 447.88615578 C-83.05964443 447.8949547 -99.16956236 447.90617607 -115.27947998 447.91870117 C-116.31456511 447.9195012 -116.31456511 447.9195012 -117.37056105 447.92031739 C-133.12666319 447.93253452 -148.88276091 447.9468312 -164.63885593 447.96625423 C-165.63231209 447.96747652 -165.63231209 447.96747652 -166.64583808 447.9687235 C-173.91101087 447.97769705 -181.17618301 447.98709398 -188.44135481 447.99683231 C-202.62727257 448.01539742 -216.8131588 448.02630275 -230.99908889 448.02735423 C-240.71674488 448.0284568 -250.43437925 448.03639704 -260.15202611 448.04973788 C-265.76104329 448.05716436 -271.37001316 448.0612444 -276.97903442 448.05661964 C-282.1128991 448.05242712 -287.24667101 448.05735006 -292.3805222 448.0695275 C-294.23844916 448.07229684 -296.09638488 448.07167959 -297.95430886 448.0673464 C-300.47944189 448.0619324 -303.00425937 448.06880495 -305.52937222 448.07869816 C-306.61147108 448.07193732 -306.61147108 448.07193732 -307.71543053 448.0650399 C-314.48152345 448.11627869 -321.2421288 449.12727086 -326.74066162 453.33203125 C-331.02039784 460.08551571 -329.31087675 469.14961177 -327.67816162 476.55859375 C-319.36500358 510.84254634 -305.2184268 544.51574851 -284.74066162 573.33203125 C-284.0987085 574.25628906 -283.45675537 575.18054687 -282.79534912 576.1328125 C-242.99583991 632.33504831 -184.14275665 671.62410524 -116.55316162 685.58203125 C-115.83120605 685.73317383 -115.10925049 685.88431641 -114.36541748 686.04003906 C-99.79946182 688.8655315 -85.22935036 689.66287477 -70.42718506 689.59277344 C-67.74238523 689.58203814 -65.05825414 689.59275394 -62.37347412 689.60546875 C-38.38768828 689.62590039 -13.85119252 686.64141969 8.98199463 679.08447266 C10.59059789 678.55298517 12.20299242 678.03290733 13.81793213 677.52099609 C29.66304929 672.48840956 44.47868624 665.92159988 59.25933838 658.33203125 C60.02858643 657.93902832 60.79783447 657.54602539 61.59039307 657.14111328 C92.55665461 641.11041716 122.19247502 616.1374536 143.25933838 588.33203125 C143.76110596 587.68492187 144.26287354 587.0378125 144.77984619 586.37109375 C163.23740243 562.52156335 177.73108308 536.15955964 187.48297119 507.59521484 C188.26032953 505.32914194 189.06622422 503.07478871 189.87652588 500.8203125 C193.64843931 490.15370298 196.23663189 479.45576638 198.25933838 468.33203125 C198.39968506 467.58405273 198.54003174 466.83607422 198.68463135 466.06542969 C202.28041702 446.62531631 203.13477695 426.93891627 203.95562744 407.22558594 C205.33370161 374.13916299 208.80843211 342.43894927 217.25933838 310.33203125 C217.60900012 308.90543797 217.95657235 307.47833131 218.30230713 306.05078125 C230.71998397 255.6012459 255.1336614 207.70411397 286.25933838 166.33203125 C286.92159424 165.44233643 286.92159424 165.44233643 287.597229 164.53466797 C300.11716985 147.73083031 314.23933854 132.29455476 329.00933838 117.45703125 C329.70631836 116.75537842 330.40329834 116.05372559 331.12139893 115.33081055 C335.67150651 110.79472486 340.38259632 106.51301789 345.25933838 102.33203125 C346.22355713 101.48640625 347.18777588 100.64078125 348.18121338 99.76953125 C413.3195587 43.62819495 495.10683675 9.73349198 580.07183838 -0.98046875 C581.95407104 -1.21950928 581.95407104 -1.21950928 583.87432861 -1.46337891 C600.64006807 -3.46095207 617.36374895 -3.85458047 634.23394775 -3.85327148 C637.35973885 -3.85545159 640.48517197 -3.87367449 643.61090088 -3.89257812 C663.11172184 -3.94844179 682.41865055 -2.7140446 701.63433838 0.70703125 C702.90760986 0.92834717 704.18088135 1.14966309 705.49273682 1.37768555 C709.08510475 2.01153871 712.67295617 2.66522982 716.25933838 3.33203125 C717.13815674 3.49429199 718.0169751 3.65655273 718.92242432 3.82373047 C785.88309751 16.52800914 848.36829836 51.08669722 900.25933838 94.33203125 C900.76173035 94.74899765 901.26412231 95.16596405 901.78173828 95.5955658 C910.67754484 103.00320723 919.05477858 110.81082626 927.21124268 119.02319336 C929.08116978 120.90391653 930.96166476 122.77359944 932.84332275 124.64257812 C939.77705723 131.56868542 946.18368148 138.63382892 952.25933838 146.33203125 C953.20609788 147.45701856 954.15935688 148.57661077 955.12261963 149.6875 C977.78973306 175.89747965 995.72064199 205.44956836 1011.25933838 236.33203125 C1011.66249268 237.12367676 1012.06564697 237.91532227 1012.48101807 238.73095703 C1030.84935121 274.99001535 1042.465862 315.10186825 1048.57183838 355.20703125 C1048.79275146 356.64453735 1048.79275146 356.64453735 1049.01812744 358.11108398 C1051.7335408 377.40673497 1052.5591079 396.82215097 1052.52003479 416.28479004 C1052.52306569 418.47372329 1052.52695981 420.66265549 1052.53162736 422.85158587 C1052.54179354 428.7863747 1052.53975514 434.72110236 1052.53544676 440.65589595 C1052.53295889 447.08650642 1052.54201851 453.51710293 1052.54948425 459.94770813 C1052.56258952 472.50910477 1052.56403855 485.07048222 1052.56168399 497.63188434 C1052.55984448 507.83906965 1052.56162464 518.0462487 1052.56590843 528.25343323 C1052.56651085 529.72477628 1052.56711205 531.19611933 1052.56771204 532.66746238 C1052.56861936 534.88502593 1052.56952803 537.10258947 1052.57044439 539.32015301 C1052.57885717 559.8987053 1052.58322063 580.47725525 1052.57903767 601.05580902 C1052.57888129 601.82949902 1052.57872491 602.60318901 1052.5785638 603.40032415 C1052.57775812 607.3209433 1052.57691234 611.24156243 1052.5760505 615.16218156 C1052.57587941 615.94072149 1052.57570832 616.71926142 1052.57553205 617.52139347 C1052.57518539 619.09577757 1052.57483686 620.67016167 1052.57448646 622.24454577 C1052.56911979 646.78560328 1052.57709335 671.32662494 1052.59552002 695.86767578 C1052.61623312 723.48566379 1052.62696509 751.1036296 1052.62294453 778.7216258 C1052.62254921 781.66497771 1052.62218766 784.60832961 1052.62184715 787.55168152 C1052.62171106 788.638658 1052.62171106 788.638658 1052.62157221 789.7475936 C1052.62040686 800.68051875 1052.62704894 811.61342141 1052.63765907 822.54634094 C1052.64970175 834.96752262 1052.65100101 847.3886453 1052.63886891 859.80982876 C1052.63296815 866.14618565 1052.63191436 872.48244564 1052.64387131 878.81879616 C1052.6546871 884.61755724 1052.65167817 890.41613998 1052.63760962 896.21489257 C1052.63495107 898.31321474 1052.63736536 900.4115507 1052.64534549 902.50985938 C1052.65543879 905.36148151 1052.64704034 908.21248207 1052.63406849 911.06407928 C1052.64137783 911.87878002 1052.64868718 912.69348076 1052.65621802 913.5328694 C1052.59331324 920.20313396 1051.45738681 926.60112259 1047.19683838 931.89453125 C1038.87634596 935.96626158 1028.60269129 932.33529327 1020.13433838 930.20703125 C1019.49316071 930.04830536 1018.85198303 929.88957947 1018.19137573 929.7260437 C992.70294107 923.39931887 969.25676656 912.57119348 949.25933838 895.33203125 C948.2925415 894.49929688 947.32574463 893.6665625 946.32965088 892.80859375 C934.95715798 882.8065435 925.9520376 871.33377642 918.25933838 858.33203125 C917.90597412 857.73519531 917.55260986 857.13835938 917.1885376 856.5234375 C911.93936254 847.51239402 908.11899475 838.29121474 904.9307251 828.37109375 C904.48373019 827.01352959 904.01129209 825.66407686 903.51373291 824.32421875 C901.00132746 817.40669707 899.89267441 810.33510972 898.75933838 803.08203125 C898.65328278 802.41726776 898.54722717 801.75250427 898.43795776 801.06759644 C896.12809942 786.5470961 894.5820487 771.97408854 893.25933838 757.33203125 C890.63393832 757.33203125 889.81817686 758.22500481 887.72418213 759.7890625 C886.64680786 760.58425293 886.64680786 760.58425293 885.54766846 761.39550781 C884.77189453 761.97268555 883.99612061 762.54986328 883.19683838 763.14453125 C874.43202555 769.56719766 865.47544814 775.5787392 856.25933838 781.33203125 C855.34668213 781.9031665 855.34668213 781.9031665 854.41558838 782.48583984 C830.18976401 797.55393072 804.86277979 809.89830141 778.26861572 820.16064453 C775.57241199 821.21016469 772.89384496 822.29449174 770.21636963 823.390625 C744.7747284 833.52030765 716.34980502 839.65752647 689.25933838 843.33203125 C688.30672119 843.47721191 687.354104 843.62239258 686.37261963 843.77197266 C648.35409534 849.43702485 606.26170985 849.06538874 568.25933838 843.33203125 C567.08210205 843.1604248 565.90486572 842.98881836 564.69195557 842.81201172 C556.16870168 841.53932409 547.70956228 840.02047561 539.25933838 838.33203125 C537.47656494 837.9769751 537.47656494 837.9769751 535.65777588 837.61474609 C478.08145335 825.83989072 422.99755028 800.97108862 376.25933838 765.33203125 C375.63672119 764.85958984 375.014104 764.38714844 374.37261963 763.90039062 C367.80558675 758.8946033 361.41635814 753.69058364 355.13433838 748.33203125 C354.62096924 747.89431396 354.1076001 747.45659668 353.57867432 747.00561523 C343.27027733 738.10943672 333.48037859 728.71765467 323.87335205 719.07641602 C322.03898975 717.23658469 320.19919617 715.40230141 318.35894775 713.56835938 C317.18610009 712.39485261 316.01356173 711.2210366 314.84136963 710.046875 C314.29358353 709.50111313 313.74579742 708.95535126 313.18141174 708.39305115 C309.81781365 705.00832191 308.38975029 703.51852397 307.86090088 698.70703125 C307.93930253 693.43273819 310.48149217 690.36257196 313.63433838 686.33203125 C314.74969551 684.82932427 315.86161299 683.32405886 316.97027588 681.81640625 C317.80703857 680.6881543 317.80703857 680.6881543 318.66070557 679.53710938 C346.65089583 640.92877119 364.8742447 594.96651971 379.37213135 549.92138672 C380.77431177 545.59808716 382.41826536 541.48115499 384.25933838 537.33203125 C387.29361182 539.96730237 388.90644294 543.07913688 390.82183838 546.58203125 C402.01904188 566.58447405 415.92468118 585.32174887 431.25933838 602.33203125 C431.80509521 602.93950195 432.35085205 603.54697266 432.91314697 604.17285156 C439.04340287 610.9662657 445.18837614 617.50431512 452.25933838 623.33203125 C453.2106665 624.15960937 454.16199463 624.9871875 455.14215088 625.83984375 C488.34967629 654.68534208 527.43563407 673.0296572 570.25933838 682.33203125 C571.06129639 682.51362793 571.86325439 682.69522461 572.68951416 682.88232422 C597.05738497 688.39214563 621.32573001 689.9364581 646.25933838 689.33203125 C647.03744873 689.32187988 647.81555908 689.31172852 648.61724854 689.30126953 C668.56019823 689.02448645 689.44352667 684.89451906 708.25933838 678.33203125 C708.99200928 678.08227539 709.72468018 677.83251953 710.47955322 677.57519531 C736.72337464 668.5606054 761.15628779 656.19647958 783.25933838 639.33203125 C784.11616211 638.68717773 784.11616211 638.68717773 784.99029541 638.02929688 C804.86756455 623.0296501 824.23314644 605.19353546 839.25933838 585.33203125 C840.02633057 584.38199219 840.79332275 583.43195312 841.58355713 582.453125 C863.81436785 554.56863871 877.73118117 522.5012393 887.25933838 488.33203125 C887.7485376 486.59759766 887.7485376 486.59759766 888.24761963 484.828125 C893.77341754 464.00011749 895.65866661 442.62138176 895.57183838 421.14453125 C895.57068024 420.25082825 895.56952209 419.35712524 895.56832886 418.43634033 C895.53281977 404.54127645 894.82753388 391.01710101 892.25933838 377.33203125 C892.07516357 376.28885742 892.07516357 376.28885742 891.88726807 375.22460938 C891.12149103 370.89997325 890.21887534 366.61734196 889.25933838 362.33203125 C888.97007184 360.96749115 888.68101771 359.60290602 888.39215088 358.23828125 C886.30882883 348.65609918 883.48623085 339.50857316 880.01519775 330.34033203 C879.31078709 328.46872927 878.63544498 326.58625724 877.96246338 324.703125 C869.27013556 301.41279958 855.1903871 279.14493338 840.25933838 259.33203125 C839.82121826 258.74969727 839.38309814 258.16736328 838.93170166 257.56738281 C833.26616998 250.08814653 827.3077815 242.99019122 820.88824463 236.1484375 C818.39784048 233.48041166 815.98174494 230.76012825 813.57183838 228.01953125 C809.72651256 223.746947 805.6649328 220.01217616 801.25933838 216.33203125 C800.29125244 215.48769531 799.3231665 214.64335938 798.32574463 213.7734375 C790.97561563 207.38416837 783.41877984 201.67239561 775.25933838 196.33203125 C773.82461182 195.38457031 773.82461182 195.38457031 772.36090088 194.41796875 C733.79816589 169.82283856 688.91244627 155.49327584 643.02886963 155.09375 C641.61687035 155.0791272 641.61687035 155.0791272 640.17634583 155.06420898 C571.29702946 154.49842155 505.69765599 171.50170038 453.25933838 218.33203125 C452.39308838 219.08871094 451.52683838 219.84539062 450.63433838 220.625 C440.62364547 229.46256483 431.49192319 238.81501191 423.25933838 249.33203125 C422.46914307 250.316875 421.67894775 251.30171875 420.86480713 252.31640625 C378.41936271 305.71171567 361.15680175 371.9385887 358.08462524 439.03268433 C357.41940611 453.55533257 356.21432041 467.91848194 354.25933838 482.33203125 C354.11238525 483.41871094 353.96543213 484.50539063 353.81402588 485.625 C350.01789453 513.06652575 343.94580751 540.02067617 335.25933838 566.33203125 C334.8520752 567.5837915 334.8520752 567.5837915 334.43658447 568.86083984 C317.1897329 621.55373313 288.21244357 673.72437519 248.01715088 712.57421875 C246.15571178 714.43565785 244.46151468 716.38703185 242.75933838 718.39453125 C239.92423369 721.68096427 236.91280806 724.50024921 233.60308838 727.30078125 C231.26961849 729.32312182 229.02023557 731.42149443 226.77423096 733.54003906 C219.60756987 740.27885571 212.08769552 746.38355051 204.25933838 752.33203125 C203.62093018 752.82203613 202.98252197 753.31204102 202.32476807 753.81689453 C182.46985728 769.05335912 161.40496837 782.22671263 139.41363525 794.15869141 C137.39148489 795.26005753 135.37959353 796.37823225 133.36871338 797.5 C114.22275554 808.04735853 93.790296 816.86249636 73.25933838 824.33203125 C72.2321167 824.71431885 71.20489502 825.09660645 70.14654541 825.49047852 C61.86375305 828.52619297 53.543345 831.04501909 45.00933838 833.26953125 C44.36792908 833.43778412 43.72651978 833.60603699 43.06567383 833.77938843 C38.46872062 834.98429489 33.86559727 836.16320914 29.25933838 837.33203125 C28.09628174 837.62819336 26.9332251 837.92435547 25.73492432 838.22949219 C11.28044677 841.86517787 -3.0443367 844.55614876 -17.87835693 846.03955078 C-20.55335774 846.31289187 -23.21988886 846.62882364 -25.88909912 846.953125 C-79.83495567 852.98390249 -134.88842086 846.83761521 -186.74066162 831.33203125 C-187.5002417 831.10773437 -188.25982178 830.8834375 -189.04241943 830.65234375 C-196.23099927 828.51867536 -203.26401292 826.17484595 -210.21429443 823.35400391 C-212.52771852 822.41817155 -214.84940403 821.51011838 -217.17816162 820.61328125 C-263.39480196 802.65868799 -306.58001746 777.26665553 -343.74066162 744.33203125 C-344.62238037 743.55085938 -345.50409912 742.7696875 -346.41253662 741.96484375 C-348.8679496 739.76748373 -351.30648607 737.55288312 -353.74066162 735.33203125 C-354.71906006 734.44644531 -355.6974585 733.56085937 -356.70550537 732.6484375 C-364.84483404 725.26215442 -372.78590332 717.76258624 -379.94378662 709.40625 C-381.91528592 707.13045407 -383.95200557 704.92280458 -385.99066162 702.70703125 C-391.08277729 697.06161269 -395.73736154 691.1121528 -400.37640381 685.09472656 C-401.67793225 683.41308101 -402.99213827 681.74230751 -404.31097412 680.07421875 C-410.5764969 672.11091775 -416.26028645 663.85141703 -421.74066162 655.33203125 C-422.22373779 654.59049805 -422.70681396 653.84896484 -423.20452881 653.08496094 C-444.61119848 620.1063791 -461.21541803 583.97400146 -472.30316162 546.26953125 C-472.54222229 545.45922455 -472.78128296 544.64891785 -473.02758789 543.8140564 C-478.5159295 525.1441193 -482.52674246 506.574108 -485.42816162 487.33203125 C-485.53134705 486.65443756 -485.63453247 485.97684387 -485.74084473 485.27871704 C-488.77446155 465.11273541 -490.07970807 445.03277842 -490.00140381 424.64355469 C-489.99066735 421.33379821 -490.00138815 418.02458419 -490.01409912 414.71484375 C-490.02717703 395.76336949 -488.67459236 377.02299484 -485.92816162 358.26953125 C-485.75784424 357.09745117 -485.58752686 355.92537109 -485.41204834 354.71777344 C-483.89996259 344.70343775 -481.85315479 334.88364196 -479.41156006 325.05810547 C-478.71786306 322.23939344 -478.05935439 319.41395925 -477.40472412 316.5859375 C-465.0049886 263.90231069 -441.11484414 212.73941005 -408.74066162 169.33203125 C-407.99646973 168.33091309 -407.99646973 168.33091309 -407.23724365 167.30957031 C-393.52687563 148.93624241 -378.4680299 131.87149119 -362.26116943 115.66723633 C-360.73579449 114.13965709 -359.2186549 112.60419543 -357.70159912 111.06835938 C-351.37362759 104.70470714 -344.77826723 98.91643758 -337.74066162 93.33203125 C-336.67836911 92.44475529 -335.61998842 91.55273188 -334.56878662 90.65234375 C-314.98275877 73.97454428 -293.26061301 59.70981464 -270.74066162 47.33203125 C-269.88875244 46.86087891 -269.03684326 46.38972656 -268.15911865 45.90429688 C-256.34453477 39.41785867 -244.28139314 33.64096423 -231.92816162 28.26953125 C-231.29236176 27.99167786 -230.65656189 27.71382446 -230.00149536 27.42755127 C-223.38805659 24.54904902 -216.84206645 21.85655724 -209.87493896 19.96264648 C-207.56242226 19.27936684 -205.39493561 18.40311471 -203.17816162 17.45703125 C-179.90950545 8.01416159 -153.88684101 3.40072518 -129.16156006 -0.30224609 C-127.12511982 -0.60988904 -125.09249858 -0.94266259 -123.06097412 -1.28125 C-119.62582173 -1.83137832 -116.19719607 -2.2721284 -112.74066162 -2.66796875 C-111.95916748 -2.75820313 -111.17767334 -2.8484375 -110.37249756 -2.94140625 C-73.55764137 -6.97292583 -36.56160162 -5.38344092 0 0 Z " fill="#ED1B24" transform="translate(908.7406616210938,639.66796875)"/>
<path d="M0 0 C1.02010162 -0.00599213 2.04020325 -0.01198425 3.09121704 -0.01815796 C28.07353835 -0.11587566 53.06690842 3.07099735 77 10.4375 C77.94746094 10.72681396 77.94746094 10.72681396 78.9140625 11.02197266 C90.68454933 14.65681626 101.86339813 19.18587969 113 24.4375 C114.78664063 25.26894531 114.78664063 25.26894531 116.609375 26.1171875 C133.02540268 34.02260175 147.8455559 44.01492772 162 55.4375 C162.85609863 56.1178833 162.85609863 56.1178833 163.72949219 56.81201172 C172.28202806 63.64843052 180.05494408 71.2900763 187.8125 79 C188.3009137 79.48305603 188.78932739 79.96611206 189.2925415 80.46380615 C195.99182659 87.10726151 202.13836815 94.04259209 208 101.4375 C209.03666787 102.70378711 210.07543461 103.96836169 211.1171875 105.23046875 C231 129.61041703 231 129.61041703 231 133.4375 C77.55 133.4375 -75.9 133.4375 -234 133.4375 C-229.6122718 125.91568024 -225.42609638 118.89925266 -220.25 112 C-219.64438232 111.186521 -219.03876465 110.37304199 -218.41479492 109.53491211 C-213.20510595 102.5957407 -207.7567151 95.92766325 -202 89.4375 C-201.56123535 88.94233887 -201.1224707 88.44717773 -200.67041016 87.93701172 C-190.243428 76.22425066 -179.39493294 65.08187198 -167 55.4375 C-165.56140625 54.27347656 -165.56140625 54.27347656 -164.09375 53.0859375 C-117.04171473 15.65818217 -59.34892034 0.11474452 0 0 Z " fill="#FEFEFE" transform="translate(845,793.5625)"/>
<path d="M0 0 C13.89111829 9.70663327 22.90893522 25.01208857 26.23681641 41.50927734 C26.57652603 44.10012941 26.7002872 46.63015689 26.77978516 49.24365234 C26.80556641 49.96117676 26.83134766 50.67870117 26.85791016 51.41796875 C27.20002497 62.09836546 27.01039205 71.9504633 23.77978516 82.24365234 C23.51294922 83.17177734 23.24611328 84.09990234 22.97119141 85.05615234 C18.14206115 100.16596435 7.09385379 113.23877343 -6.86474609 120.70458984 C-23.88271605 128.51027106 -43.95024588 130.81242648 -61.89477539 124.50463867 C-78.32077743 118.09084123 -90.37340736 107.11906882 -97.68896484 91.00927734 C-104.94284683 73.04326731 -106.41307368 50.53517786 -99.40576172 32.10107422 C-92.6035685 16.17152194 -82.01552767 2.98359826 -66.22021484 -4.75634766 C-62.93068452 -5.98929756 -59.63003157 -6.92170595 -56.22021484 -7.75634766 C-55.00849609 -8.10568359 -53.79677734 -8.45501953 -52.54833984 -8.81494141 C-35.06218796 -13.15274995 -15.03906291 -9.6322094 0 0 Z " fill="#020202" transform="translate(1704.22021484375,1674.75634765625)"/>
<path d="M0 0 C14.22071553 12.01983993 21.62605192 28.2998661 23.30224609 46.68212891 C23.93471218 58.02609761 23.73181859 68.75500614 20.30224609 79.68212891 C20.03541016 80.61025391 19.76857422 81.53837891 19.49365234 82.49462891 C14.66384658 97.60655448 3.61680222 110.66960646 -10.33837891 118.14306641 C-27.65036391 126.07437117 -47.17444222 127.75252254 -65.47509766 121.93603516 C-75.13588117 118.17711212 -82.36840763 112.98557643 -89.69775391 105.68212891 C-90.26236328 105.14072266 -90.82697266 104.59931641 -91.40869141 104.04150391 C-103.9820634 90.86939991 -107.35069603 71.7361917 -107.16625977 54.26049805 C-106.55641722 35.02418532 -100.3830728 18.09637287 -86.63525391 4.34619141 C-63.48979805 -16.64476723 -25.13827443 -19.5134319 0 0 Z " fill="#010101" transform="translate(726.69775390625,1677.31787109375)"/>
<path d="M0 0 C10.56 0 21.12 0 32 0 C40.58398029 9.77038407 40.58398029 9.77038407 42.41015625 14.28515625 C44.92624114 20.0249445 48.11425456 25.01291579 51.625 30.1875 C52.71470835 31.85561565 53.80070118 33.52616489 54.8828125 35.19921875 C55.40649414 36.00536621 55.93017578 36.81151367 56.46972656 37.64208984 C59.26226026 41.9449441 62.04723271 46.25268403 64.83203125 50.56054688 C68.92472697 56.88939663 73.03303826 63.20805681 77.14648438 69.5234375 C81.79332336 76.66413988 86.39269918 83.83308761 91 91 C91.33 60.97 91.66 30.94 92 0 C100.91 0 109.82 0 119 0 C119 43.89 119 87.78 119 133 C89 133 89 133 82.65234375 127.78125 C81.26143161 125.34311739 80.0903003 123.0353858 78.9375 120.5 C78.22735721 119.18166724 77.50446993 117.87013254 76.77001953 116.56518555 C75.23320223 113.81497683 73.75229725 111.04389687 72.30126953 108.24755859 C68.89748826 101.81643501 64.78651616 95.84660988 60.72314453 89.82028198 C58.49399409 86.50042421 56.30970968 83.15134353 54.12109375 79.8046875 C53.26179466 78.4943096 52.40225856 77.1840871 51.54248047 75.87402344 C51.12166199 75.23267456 50.70084351 74.59132568 50.26727295 73.93054199 C48.5959018 71.38440369 46.92293871 68.83931321 45.25 66.29420471 C43.67988178 63.904614 42.11147847 61.5139013 40.54351807 59.12289429 C39.47297658 57.49156062 38.40034218 55.86160099 37.32763672 54.23168945 C36.35914795 52.75381958 36.35914795 52.75381958 35.37109375 51.24609375 C34.81349365 50.39716553 34.25589355 49.5482373 33.68139648 48.67358398 C31.69059904 45.50802237 29.85532447 42.24681781 28 39 C27.67 70.02 27.34 101.04 27 133 C18.09 133 9.18 133 0 133 C0 89.11 0 45.22 0 0 Z " fill="#020202" transform="translate(1841,1667)"/>
<path d="M0 0 C9.24 0 18.48 0 28 0 C28.01981934 2.3605957 28.03963867 4.72119141 28.06005859 7.15332031 C28.12725884 14.99242824 28.20489229 22.83140856 28.28752708 30.67036819 C28.33726528 35.41856267 28.38359549 40.16673729 28.421875 44.91503906 C28.45901401 49.50577293 28.50544758 54.0963309 28.55806351 58.68691254 C28.57645667 60.42976516 28.5916189 62.17265526 28.60334396 63.91556549 C28.32007172 85.79174704 28.32007172 85.79174704 38.375 104.4375 C46.62648594 109.34909877 53.78592933 110.21224911 63.37109375 108.6015625 C69.02877146 106.90315633 72.95957791 102.97243714 76 98 C78.55276777 91.8995268 79.44416605 86.38127555 79.43237305 79.80834961 C79.4425647 78.93896759 79.45275635 78.06958557 79.46325684 77.17385864 C79.49317246 74.3332863 79.50261973 71.49305234 79.51171875 68.65234375 C79.52858136 66.66979368 79.54673371 64.6872542 79.56611633 62.70472717 C79.61345065 57.51151844 79.643367 52.31835267 79.66955566 47.125 C79.69944505 41.81566897 79.74594648 36.50648566 79.79101562 31.19726562 C79.87686026 20.79823772 79.94275192 10.39922469 80 0 C89.57 0 99.14 0 109 0 C109.06807153 11.10159418 109.12298567 22.20304727 109.15543652 33.30480385 C109.17101981 38.46109464 109.19212235 43.61723389 109.22631836 48.7734375 C109.25917561 53.75960126 109.27690802 58.74562025 109.28463173 63.731884 C109.29012831 65.62385712 109.30086018 67.51582329 109.31719017 69.40773392 C109.47331738 88.2645051 107.70274415 107.46494862 94.1875 121.94140625 C80.26708824 134.93566158 62.5404377 135.658478 44.50830078 135.13623047 C30.96506549 134.40067224 20.21007108 128.78461237 11 119 C-0.47134597 105.21357514 -0.72745498 85.43992574 -0.48828125 68.45703125 C-0.47892418 66.46637371 -0.47182182 64.47570444 -0.46684265 62.48503113 C-0.44800021 57.31461246 -0.39910364 52.14492689 -0.34332275 46.97479248 C-0.29163123 41.67144683 -0.26922344 36.36797955 -0.24414062 31.06445312 C-0.19095606 20.70926598 -0.10321463 10.3548094 0 0 Z " fill="#010101" transform="translate(1039,1667)"/>
<path d="M0 0 C1.10263184 0.00604248 2.20526367 0.01208496 3.34130859 0.01831055 C14.29849636 0.15130569 23.62023293 0.88188554 33.8125 5.25 C33.8125 14.16 33.8125 23.07 33.8125 32.25 C28.3675 29.775 28.3675 29.775 22.8125 27.25 C11.36880804 23.64274927 -2.04232394 21.53266942 -13.1875 27.25 C-16.81230162 29.71342655 -16.81230162 29.71342655 -19.1875 33.25 C-19.73790035 38.86408358 -18.76224785 42.89014684 -15.1875 47.25 C-12.44730103 49.27869351 -9.50764186 50.72069857 -6.4375 52.1875 C-5.60001221 52.60789551 -4.76252441 53.02829102 -3.8996582 53.46142578 C-1.33780122 54.74320169 1.23588053 55.99821515 3.8125 57.25 C6.06702242 58.36347708 8.31897964 59.48188947 10.56933594 60.60375977 C11.89626486 61.26296923 13.22616336 61.91625014 14.55957031 62.56225586 C26.22242518 68.27419955 34.06696034 74.94367621 38.95703125 87.09375 C41.95509377 98.15509483 40.11883468 109.2566376 34.8125 119.25 C28.49878434 129.55428372 16.9676493 133.39907718 5.8125 136.25 C2.21536696 137.08048358 -1.10281048 137.37846566 -4.79296875 137.3828125 C-5.85966797 137.38410156 -6.92636719 137.38539063 -8.02539062 137.38671875 C-9.68344727 137.38091797 -9.68344727 137.38091797 -11.375 137.375 C-12.46103516 137.37886719 -13.54707031 137.38273437 -14.66601562 137.38671875 C-23.52416314 137.37607833 -32.13650548 137.30564819 -40.5625 134.3125 C-42.02816406 133.80396484 -42.02816406 133.80396484 -43.5234375 133.28515625 C-46.1875 132.25 -46.1875 132.25 -50.1875 130.25 C-50.1875 120.68 -50.1875 111.11 -50.1875 101.25 C-44.2475 104.715 -44.2475 104.715 -38.1875 108.25 C-34.47964484 109.78850186 -34.47964484 109.78850186 -31.1875 110.625 C-30.135625 110.92148438 -29.08375 111.21796875 -28 111.5234375 C-27.071875 111.76320313 -26.14375 112.00296875 -25.1875 112.25 C-24.54941406 112.44207031 -23.91132813 112.63414063 -23.25390625 112.83203125 C-13.853207 114.73349594 -3.65942106 113.80594316 4.8125 109.25 C8.05480246 106.5407788 8.70171127 104.21016896 9.1875 100 C8.70096716 95.13467162 7.40922811 92.441753 3.8125 89.25 C-3.56307261 84.57077366 -11.47196808 81.08059488 -19.5 77.6875 C-33.09695924 71.92265014 -43.34884997 64.05044554 -49.1875 50.25 C-52.01089051 41.77982847 -51.45090824 30.58062684 -47.625 22.5625 C-41.20332997 11.69967499 -31.36640447 5.2618149 -19.30541992 1.69311523 C-12.84777285 0.10738639 -6.62820025 -0.05785965 0 0 Z " fill="#020202" transform="translate(478.1875,1664.75)"/>
<path d="M0 0 C34.32 0 68.64 0 104 0 C104 7.92 104 15.84 104 24 C91.46 24 78.92 24 66 24 C66 59.97 66 95.94 66 133 C56.76 133 47.52 133 38 133 C38 97.03 38 61.06 38 24 C25.46 24 12.92 24 0 24 C0 16.08 0 8.16 0 0 Z " fill="#000000" transform="translate(1253,1667)"/>
<path d="M0 0 C9.57 0 19.14 0 29 0 C29 35.97 29 71.94 29 109 C45.17 109 61.34 109 78 109 C78 116.92 78 124.84 78 133 C52.26 133 26.52 133 0 133 C0 89.11 0 45.22 0 0 Z " fill="#030303" transform="translate(859,1667)"/>
<path d="M0 0 C9.39753841 5.04076823 14.61038459 12.93846287 17.890625 22.85546875 C21.61095401 38.74227913 20.56217752 55.26440613 12.78125 69.69921875 C8.30998757 76.60833029 1.9538129 81.64747902 -6.015625 83.890625 C-16.06493264 85.62272616 -24.74931668 84.44646274 -33.65625 79.63671875 C-39.91000907 74.60652123 -44.59622714 68.81124464 -47.53125 61.32421875 C-47.97984375 60.21240234 -47.97984375 60.21240234 -48.4375 59.078125 C-52.35978349 47.43838556 -52.58163077 31.6274519 -47.53125 20.32421875 C-47.26441406 19.64746094 -46.99757813 18.97070312 -46.72265625 18.2734375 C-42.45267559 8.4999262 -35.32696914 2.22162743 -25.53125 -1.67578125 C-17.33993239 -4.40622045 -7.86011385 -3.29431242 0 0 Z " fill="#FCFCFC" transform="translate(1681.53125,1692.67578125)"/>
<path d="M0 0 C9.39753841 5.04076823 14.61038459 12.93846287 17.890625 22.85546875 C21.61095401 38.74227913 20.56217752 55.26440613 12.78125 69.69921875 C8.30998757 76.60833029 1.9538129 81.64747902 -6.015625 83.890625 C-16.06493264 85.62272616 -24.74931668 84.44646274 -33.65625 79.63671875 C-39.91000907 74.60652123 -44.59622714 68.81124464 -47.53125 61.32421875 C-47.97984375 60.21240234 -47.97984375 60.21240234 -48.4375 59.078125 C-52.35978349 47.43838556 -52.58163077 31.6274519 -47.53125 20.32421875 C-47.26441406 19.64746094 -46.99757813 18.97070312 -46.72265625 18.2734375 C-42.45267559 8.4999262 -35.32696914 2.22162743 -25.53125 -1.67578125 C-17.33993239 -4.40622045 -7.86011385 -3.29431242 0 0 Z " fill="#FCFCFC" transform="translate(700.53125,1692.67578125)"/>
<path d="M0 0 C9.57 0 19.14 0 29 0 C29 43.89 29 87.78 29 133 C19.43 133 9.86 133 0 133 C0 89.11 0 45.22 0 0 Z " fill="#040404" transform="translate(1462,1667)"/>
</svg>
