<svg xmlns="http://www.w3.org/2000/svg" version="1.1" xmlns:xlink="http://www.w3.org/1999/xlink" xmlns:svgjs="http://svgjs.dev/svgjs" width="765" height="625" viewBox="0 0 300 300" class="svg-animations " style="background-color: rgb(0, 0, 0);"><svg viewBox="0 0 94.00724029541016 138.99130249023438" width="100" height="100" x="100" y="76.6134033203125" style="fill: rgb(255, 255, 255);"><svg width="94" height="134" viewBox="0 0 94 134" xmlns="http://www.w3.org/2000/svg">
	<path d="M76.2735 0C76.2735 0 -64.6456 73.2804 36.5852 129.033L42.1027 99.1059H15.9721L37.2328 47.6174H68.9348L54.9185 76.7048H79.4033L38.2715 129.953C40.2681 131.022 42.359 132.092 44.5445 133.134C45.4753 133.662 46.2038 134.041 46.3117 133.986L46.7569 133.743C55.6604 128.843 126.228 86.342 76.2735 0ZM45.1245 133.418C45.2729 133.486 45.4078 133.553 45.5427 133.621C45.5697 133.662 45.3943 133.567 45.1245 133.418Z"/>
	</svg></svg><text fill="#ffffff" font-family="Verdana" font-size="32px" x="57.718666076660156" y="208.72245407104492"><tspan dy="0" x="57.718666076660156">EV Website</tspan></text><text fill="#ffffff" font-family="sans-serif" font-size="16px" x="150" y="223.3865966796875"><tspan dy="0" x="150"></tspan></text></svg>